# xmcd CD database file
#
# Track frame offsets:
#	150
#	26917
#	47733
#	61225
#	76271
#	96811
#	119864
#	138304
#	151996
#	171968
#	190509
#	209419
#	229787
#	250073
#	268045
#
# Disc length: 3765 seconds
#
# Revision: 0
# Processed by: cddbd v1.5.2PL0 Copyright (c) Steve Scherf et al.
# Submitted via: CDex 1.51
#
DISCID=cf0eb30f
DTITLE=Lundgren Galliano Fresu - Mare Nostrum
DYEAR=2007
DGENRE=Jazz
TTITLE0=Mare Nostrum
TTITLE1=Principessa
TTITLE2=Eu Nao Existo Sem Voce
TTITLE3=The Seagull
TTITLE4=Que Reste-t-il De Nos Amours
TTITLE5=Years Ahead
TTITLE6=Sonia's Nightmare
TTITLE7=Chat Pitre
TTITLE8=Valzer Del Ritorno
TTITLE9=Open Your Mind
TTITLE10=Liberty Waltz
TTITLE11=Mio Mehmet, Forse Il Destino.....
TTITLE12=Ma Mere L'Oye
TTITLE13=Para Jobim
TTITLE14=Varvindar Friska
EXTD=YEAR: 2007
EXTT0=
EXTT1=
EXTT2=
EXTT3=
EXTT4=
EXTT5=
EXTT6=
EXTT7=
EXTT8=
EXTT9=
EXTT10=
EXTT11=
EXTT12=
EXTT13=
EXTT14=
PLAYORDER=
